<?xml version="1.0" encoding="UTF-8"?>
<svg width="9px" height="16px" viewBox="0 0 9 16" version="1.1" xmlns="http://www.w3.org/2000/svg" xmlns:xlink="http://www.w3.org/1999/xlink">
    <!-- Generator: Sketch 52.4 (67378) - http://www.bohemiancoding.com/sketch -->
    <title>icon/arrow/next</title>
    <desc>Created with Sketch.</desc>
    <g id="Symbols" stroke="none" stroke-width="1" fill="none" fill-rule="evenodd">
        <g id="icon/arrow/next" transform="translate(-8.000000, -4.000000)" fill="#000000" fill-rule="nonzero">
            <path d="M16.3207589,12.1335073 C16.3257449,12.1223954 16.3278818,12.1105883 16.3314432,12.0994764 C16.3342924,12.089059 16.3385663,12.0786412 16.340703,12.0682245 C16.34284,12.0571126 16.3435524,12.0453055 16.3449769,12.0335003 C16.3464014,12.0223884 16.3478261,12.0112765 16.3478261,12.0001646 C16.3478261,11.9890527 16.3464014,11.9779408 16.3449769,11.9668289 C16.3435524,11.9550226 16.3435524,11.94391 16.340703,11.9321047 C16.3385663,11.9216873 16.3350047,11.9112695 16.3314432,11.9008527 C16.3278818,11.8890464 16.3250326,11.8779338 16.3207589,11.8668219 C16.3164851,11.8564045 16.3107867,11.8466818 16.3050883,11.8369585 C16.29939,11.826541 16.2944039,11.8154299 16.287281,11.8050113 C16.2808704,11.7952883 16.2723227,11.7862598 16.2644875,11.7772316 C16.2580769,11.7688977 16.2523786,11.7605638 16.2445424,11.7529241 L8.62660306,4.10794347 C8.48628105,3.96696114 8.25548905,3.9634889 8.11090557,4.10099863 C7.96630933,4.23781356 7.96274808,4.46283734 8.1037827,4.60380723 L15.4746409,11.999526 L8.10305331,19.3964892 C7.9627313,19.5374716 7.96629255,19.7624882 8.11017636,19.8992978 C8.18140502,19.9666643 8.27329184,20 8.36446021,20 C8.4591953,20 8.55464885,19.9638872 8.62587385,19.8923533 L16.2438131,12.2473727 C16.2516484,12.2397332 16.2566346,12.2313995 16.2637583,12.2230652 C16.2715934,12.2140368 16.280141,12.2050088 16.2865518,12.1952855 C16.2943869,12.1848682 16.2986608,12.1737568 16.305071,12.1633383 C16.3100745,12.1536479 16.3164851,12.143924 16.3207589,12.1335073 Z"></path>
        </g>
    </g>
</svg>